<?xml version="1.0" standalone="no"?><!DOCTYPE svg PUBLIC "-//W3C//DTD SVG 1.1//EN" "http://www.w3.org/Graphics/SVG/1.1/DTD/svg11.dtd"><svg t="1526456441230" class="icon" style="" viewBox="0 0 1024 1024" version="1.1" xmlns="http://www.w3.org/2000/svg" p-id="3531" xmlns:xlink="http://www.w3.org/1999/xlink" width="200" height="200"><defs><style type="text/css"></style></defs><path d="M805.7 118v460.6H383.1l-11.7 11.7-98.5 98.5-98.5-98.5-11.7-11.7h-55.9V118h698.9m40-40H66.8v540.6h79.3l126.8 126.8 126.8-126.8h446V78zM276.8 313.4h-60v60h60v-60z m196.3 0h-60v60h60v-60z m196.4 0h-60v60h60v-60z m205.3 50v40h42.4v392H871.3l-11.7 11.7-82.4 82.4-82.4-82.4-11.7-11.7H317.2v-20.1h-40v60.1h389.4L777.2 946l110.7-110.7h69.3v-472h-82.4z" fill="#ffffff" p-id="3532"></path></svg>