<svg id="图层_1" xmlns="http://www.w3.org/2000/svg" viewBox="0 0 80 80"><style>.st0{fill:#373d41}</style><path class="st0" d="M40.1 53.7c-.6 0-1.1.2-1.6.6-.5.5-.6.9-.6 1.6 0 .6.2 1.1.6 1.6.5.5.9.6 1.6.6.6 0 1.2-.2 1.6-.6.5-.5.6-.9.6-1.6 0-.6-.2-1.2-.6-1.6-.5-.4-.9-.6-1.6-.6zM40.1 22.2c-5.7 0-10.3 4.6-10.3 10.3 0 .9.8 1.7 1.7 1.7s1.7-.8 1.7-1.7c0-3.8 3.1-6.9 6.9-6.9 3.8 0 6.9 3.1 6.9 6.9s-3.1 6.9-6.9 6.9h-1.7v9.7c0 .9.8 1.7 1.7 1.7s1.7-.8 1.7-1.7v-6.5c4.9-.8 8.6-5.1 8.6-10.2 0-5.6-4.6-10.2-10.3-10.2z"/><path class="st0" d="M40.1 0C18.1 0 .2 17.9.2 39.9s17.9 39.9 39.9 39.9S80 61.9 80 39.9 62.1 0 40.1 0zm0 76.8c-20.3 0-36.9-16.5-36.9-36.9S19.8 3 40.1 3 77 19.5 77 39.9 60.5 76.8 40.1 76.8z"/></svg>