<?xml version="1.0" standalone="no"?><!DOCTYPE svg PUBLIC "-//W3C//DTD SVG 1.1//EN" "http://www.w3.org/Graphics/SVG/1.1/DTD/svg11.dtd"><svg t="1526439163226" class="icon" style="" viewBox="0 0 1024 1024" version="1.1" xmlns="http://www.w3.org/2000/svg" p-id="4092" xmlns:xlink="http://www.w3.org/1999/xlink" width="200" height="200"><defs><style type="text/css"></style></defs><path d="M903.2 342.4c-8.2 3.6-17.6-0.1-21.5-8.2-5.3-11-11.1-21.8-17.4-32.2-40.9-68.2-102.1-124.2-173.4-158.9-8-3.9-11.7-13.2-8.1-21.4 3.7-8.5 13.8-12.4 22.1-8.4 78.1 37.8 142.7 96.9 187.6 171.8 6.9 11.4 13.2 23.3 19.1 35.3 4 8.3 0.1 18.3-8.4 22zM939.1 496.8c-9.1 0-16.5 7.4-16.5 16.5 0 226.8-184.5 411.3-411.3 411.3S100 740 100 513.2s184.5-411.3 411.3-411.3c9.1 0 16.5-7.4 16.5-16.5s-7.4-16.5-16.5-16.5C266.4 69 67.1 268.3 67.1 513.2s199.3 444.2 444.2 444.2 444.2-199.3 444.2-444.2c0-9.1-7.3-16.4-16.4-16.4z" fill="#0306ff" p-id="4093"></path><path d="M610 101.9m-16.5 0a16.5 16.5 0 1 0 33 0 16.5 16.5 0 1 0-33 0Z" fill="#0306ff" p-id="4094"></path><path d="M922.6 414.5m-16.5 0a16.5 16.5 0 1 0 33 0 16.5 16.5 0 1 0-33 0Z" fill="#0306ff" p-id="4095"></path><path d="M501.3 708.2h-1.2c-15.1-0.5-28.9-9.7-42-28.3L333.9 528c-19.6-24-28.7-56.2-24.1-86.1 3.4-22.6 17.7-46 28.9-59 35.7-34.4 84.9-35.5 120.7-3.9l40.2 35.5 33.4-32.3c35.3-34.7 85.7-36.2 122.7-3.7 16.6 14.7 28.2 35.9 32.5 59.8 5.4 30-2.8 62.7-22 87.5l-119 153.6c-10 12.5-25.5 28.8-45.9 28.8zM401 389.1c-13.6 0-27.1 5.5-38.4 16.4-7.6 9-18.1 26.7-20.3 41.4-3.1 20.8 3.2 43.4 17.1 60.3l125.2 153.3c9.5 13.6 15 14.8 16.5 14.9 1.4 0.2 7.9-0.9 20.3-16.3l118.8-153.3c13.4-17.3 19.4-40.8 15.6-61.4-3-16.7-10.8-31.3-21.9-41-23.8-21-55.1-20-77.8 2.4l-32.8 32.3c-12.9 12.7-32 13.2-45.5 1.3l-40.2-35.5c-11-9.9-23.9-14.8-36.6-14.8z" fill="#0306ff" p-id="4096"></path></svg>