<?xml version="1.0" standalone="no"?><!DOCTYPE svg PUBLIC "-//W3C//DTD SVG 1.1//EN" "http://www.w3.org/Graphics/SVG/1.1/DTD/svg11.dtd"><svg t="1526384551552" class="icon" style="" viewBox="0 0 1024 1024" version="1.1" xmlns="http://www.w3.org/2000/svg" p-id="9222" xmlns:xlink="http://www.w3.org/1999/xlink" width="200" height="200"><defs><style type="text/css"></style></defs><path d="M554.6 880.4c-8.2 0-14.9-6.7-14.9-14.9V646.7c0-8.2 6.7-14.9 14.9-14.9s14.9 6.7 14.9 14.9v218.7c0 8.3-6.7 15-14.9 15zM470.4 880.4c-8.2 0-14.9-6.7-14.9-14.9V646.7c0-8.2 6.7-14.9 14.9-14.9s14.9 6.7 14.9 14.9v218.7c0.1 8.3-6.6 15-14.9 15z" p-id="9223" fill="#0306ff"></path><path d="M743.7 959.1H281.3c-28.9 0-52.4-23.5-52.4-52.4s23.5-52.4 52.4-52.4h462.5c28.9 0 52.4 23.5 52.4 52.4s-23.6 52.4-52.5 52.4z m-462.4-74.9c-12.4 0-22.5 10.1-22.5 22.5s10.1 22.5 22.5 22.5h462.5c12.4 0 22.5-10.1 22.5-22.5s-10.1-22.5-22.5-22.5H281.3zM568.2 653H456.8c-128.6 0-233.1-104.6-233.1-233.1V79c0-8.2 6.7-14.9 14.9-14.9h547.8c8.2 0 14.9 6.7 14.9 14.9v340.8c0 128.6-104.6 233.2-233.1 233.2zM253.5 93.9v325.9c0 112.1 91.2 203.3 203.3 203.3h111.4c112.1 0 203.3-91.2 203.3-203.3V93.9h-518z" p-id="9224" fill="#0306ff"></path><path d="M233.5 397.5c-70.5 0-127.8-57.3-127.8-127.8S163 141.9 233.5 141.9c8.2 0 14.9 6.7 14.9 14.9s-6.7 14.9-14.9 14.9c-54 0-97.9 43.9-97.9 97.9 0 54 43.9 97.9 97.9 97.9 8.2 0 14.9 6.7 14.9 14.9s-6.6 15.1-14.9 15.1zM791.5 397.5c-8.2 0-14.9-6.7-14.9-14.9s6.7-14.9 14.9-14.9c54 0 97.9-43.9 97.9-97.9 0-54-43.9-97.9-97.9-97.9-8.2 0-14.9-6.7-14.9-14.9s6.7-14.9 14.9-14.9c70.5 0 127.8 57.3 127.8 127.8s-57.4 127.6-127.8 127.6z" p-id="9225" fill="#0306ff"></path><path d="M885.8 93.9h-99.7c-8.2 0-14.9-6.7-14.9-14.9s6.7-14.9 14.9-14.9h99.7c8.2 0 14.9 6.7 14.9 14.9s-6.7 14.9-14.9 14.9zM238.9 93.9h-99.7c-8.2 0-14.9-6.7-14.9-14.9s6.7-14.9 14.9-14.9h99.7c8.2 0 14.9 6.7 14.9 14.9s-6.7 14.9-14.9 14.9z" p-id="9226" fill="#0306ff"></path></svg>