<?xml version="1.0" standalone="no"?><!DOCTYPE svg PUBLIC "-//W3C//DTD SVG 1.1//EN" "http://www.w3.org/Graphics/SVG/1.1/DTD/svg11.dtd"><svg t="1526384800826" class="icon" style="" viewBox="0 0 1024 1024" version="1.1" xmlns="http://www.w3.org/2000/svg" p-id="11551" xmlns:xlink="http://www.w3.org/1999/xlink" width="200" height="200"><defs><style type="text/css"></style></defs><path d="M870.195543 715.396433 870.195543 433.524694 650.96447 433.524694 650.96447 182.973288 369.089661 182.973288l0 187.91381L149.856541 370.887099 149.856541 715.396433l-62.638619 0 0 125.278261 845.617263 0L932.835186 715.396433 870.195543 715.396433zM838.876234 464.844004 838.876234 715.396433 650.96447 715.396433 650.96447 464.844004 838.876234 464.844004zM400.408971 214.291574l219.235167 0 0 219.23312L619.644137 715.396433 400.408971 715.396433 400.408971 370.887099 400.408971 214.291574zM181.175851 402.206408 369.089661 402.206408 369.089661 715.396433 181.175851 715.396433 181.175851 402.206408zM901.514853 809.354362 118.537232 809.354362l0-62.638619 31.318286 0 219.23312 0 31.31931 0 219.235167 0 31.31931 0 219.231073 0 31.31931 0L901.512806 809.354362z" p-id="11552" fill="#0306ff"></path></svg>