<?xml version="1.0" standalone="no"?><!DOCTYPE svg PUBLIC "-//W3C//DTD SVG 1.1//EN" "http://www.w3.org/Graphics/SVG/1.1/DTD/svg11.dtd"><svg t="1526525746180" class="icon" style="" viewBox="0 0 1031 1024" version="1.1" xmlns="http://www.w3.org/2000/svg" p-id="1917" xmlns:xlink="http://www.w3.org/1999/xlink" width="201.3671875" height="200"><defs><style type="text/css"></style></defs><path d="M998.4 576C1011.2 563.2 1024 531.2 1024 492.8c0-64-51.2-96-102.4-96l-134.4 0c-51.2 0-76.8-12.8-83.2-25.6-6.4-12.8-6.4-19.2-6.4-19.2l0 0 0 0c0-6.4-12.8-166.4-57.6-243.2C601.6 51.2 556.8 38.4 524.8 51.2 492.8 64 467.2 108.8 486.4 185.6c19.2 57.6-44.8 153.6-121.6 230.4C358.4 390.4 345.6 371.2 307.2 371.2L64 371.2c-64 0-64 51.2-64 89.6l0 390.4c0 38.4 0 89.6 64 89.6l243.2 0c44.8 0 57.6-25.6 64-57.6l6.4 0c25.6 0 51.2 25.6 76.8 44.8 25.6 25.6 44.8 44.8 76.8 44.8l364.8 0c12.8 0 32-6.4 38.4-19.2 25.6-25.6 25.6-64 32-83.2 19.2-12.8 51.2-51.2 32-134.4 12.8-12.8 32-44.8 32-83.2C1024 614.4 1011.2 588.8 998.4 576zM339.2 851.2c0 51.2-6.4 57.6-32 57.6L64 908.8c-25.6 0-32-12.8-32-57.6L32 460.8c0-51.2 6.4-57.6 32-57.6l243.2 0c25.6 0 32 12.8 32 57.6L339.2 851.2zM966.4 588.8c0 0 25.6 25.6 25.6 64 0 44.8-19.2 64-25.6 70.4l-12.8 6.4 0 12.8c19.2 89.6-19.2 108.8-19.2 108.8l-12.8 6.4 0 12.8c0 19.2-6.4 57.6-19.2 70.4-6.4 6.4-12.8 6.4-19.2 6.4L524.8 947.2c-12.8 0-32-19.2-51.2-38.4-25.6-25.6-57.6-57.6-96-57.6l-6.4 0c0 0 0 0 0 0L371.2 460.8c0 0 0-6.4 0-6.4 57.6-57.6 179.2-185.6 147.2-281.6-19.2-51.2 0-83.2 12.8-89.6C556.8 76.8 588.8 89.6 608 128c38.4 64 51.2 211.2 51.2 230.4 0 6.4 0 25.6 12.8 44.8 19.2 25.6 57.6 32 108.8 32l134.4 0c38.4 0 70.4 19.2 70.4 64 0 44.8-25.6 70.4-25.6 70.4L953.6 576 966.4 588.8z" p-id="1918" fill="#ffffff"></path></svg>