<?xml version="1.0" encoding="UTF-8"?>
<svg width="1031px" height="927px" viewBox="0 0 1031 927" version="1.1" xmlns="http://www.w3.org/2000/svg" xmlns:xlink="http://www.w3.org/1999/xlink">
    <!-- Generator: Sketch 50.2 (55047) - http://www.bohemiancoding.com/sketch -->
    <title>zan</title>
    <desc>Created with Sketch.</desc>
    <defs></defs>
    <g id="Page-1" stroke="none" stroke-width="1" fill="none" fill-rule="evenodd">
        <g id="zan" fill="#FFFFFF" fill-rule="nonzero">
            <path d="M998.4,530 C1011.2,542.8 1024,568.4 1030.4,606.8 C1030.4,645.2 1011.2,677.2 998.4,690 C1017.6,773.2 985.6,811.6 966.4,824.4 C960,843.6 960,882 934.4,907.6 C928,920.4 908.8,926.8 896,926.8 L531.2,926.8 C499.2,926.8 480,907.6 454.4,882 C428.8,862.8 403.2,837.2 377.6,837.2 L371.2,837.2 C364.8,869.2 352,894.8 307.2,894.8 L64,894.8 C0,894.8 0,843.6 0,805.2 L0,414.8 C0,376.4 0,325.2 64,325.2 L307.2,325.2 C345.6,325.2 358.4,344.4 364.8,370 C441.6,293.2 505.6,197.2 486.4,139.6 C467.2,62.8 492.8,18 524.8,5.2 C556.8,-7.6 601.6,5.2 640,62.8 C684.8,139.6 697.6,299.6 697.6,306 C697.6,306 697.6,312.4 704,325.2 C710.4,338 736,350.8 787.2,350.8 L921.6,350.8 C972.8,350.8 1024,382.8 1024,446.8 C1024,485.2 1011.2,517.2 998.4,530 Z" id="Shape"></path>
        </g>
    </g>
</svg>